<svg xmlns="http://www.w3.org/2000/svg" id="cancel" width="32" height="32" version="1.1" viewBox="0 0 32 32">
  <g id="layer1" transform="translate(-2772)">
    <g id="g882" style="display:inline" transform="translate(2772)">
      <path id="path882" d="M 29.499998,15.999999 A 13.499997,13.499997 0 0 1 16,29.499996 13.499997,13.499997 0 0 1 2.5000024,15.999999 13.499997,13.499997 0 0 1 16,2.5000018 13.499997,13.499997 0 0 1 29.499998,15.999999 Z" style="fill:#bdcdd4;fill-opacity:1;stroke-linecap:round;stroke-linejoin:round;stroke-dashoffset:.1"></path>
      <path id="path872" d="m 20.605593,10.000497 a 1.4670636,1.4746485 0 0 0 -1.037057,0.431489 l -3.574037,3.592493 -3.58185,-3.561254 a 1.4049602,1.3968976 0 0 0 -1.984275,-0.101526 1.4750901,1.466625 0 0 0 0,2.073493 l 3.593568,3.572968 -3.562319,3.580779 a 1.3973156,1.40454 0 0 0 -0.101557,1.98368 1.4670639,1.4746488 0 0 0 2.074114,0 l 3.574036,-3.592492 3.581851,3.561253 a 1.4049606,1.396898 0 0 0 1.984274,0.101527 1.4750898,1.4666247 0 0 0 0,-2.073494 l -3.593568,-3.572967 3.56232,-3.580779 a 1.397316,1.4045404 0 0 0 0.101557,-1.983681 1.4670636,1.4746485 0 0 0 -1.037057,-0.431489 z" style="color:#000;fill:#ff4141;stroke-linecap:round;stroke-linejoin:round;-inkscape-stroke:none"></path>
      <path id="path846" d="M 15.88317,2.0005189 C 12.312268,2.0317323 8.7757166,3.4243789 6.0999672,6.1001283 1.343079,10.857017 0.64272299,18.331983 4.4339516,23.889191 A 0.50000009,0.50000009 0 0 0 5.129264,24.022003 0.50000009,0.50000009 0 0 0 5.2601234,23.326691 C 1.736216,18.161324 2.3855208,11.228637 6.8069984,6.8071595 11.228476,2.3856821 18.161163,1.7363777 23.32653,5.2602845 A 0.50000009,0.50000009 0 0 0 24.021842,5.1294251 0.50000009,0.50000009 0 0 0 23.88903,4.4341127 C 21.457751,2.7754504 18.660539,1.9762418 15.88317,2.0005189 Z m 9.328126,3.6054688 a 0.50000009,0.50000009 0 0 0 -0.392579,0.1582031 0.50000009,0.50000009 0 0 0 0.02734,0.7089843 c 0.117997,0.1095335 0.233812,0.2201411 0.347656,0.3339844 0.109861,0.1098596 0.218361,0.2222151 0.324219,0.3359375 A 0.50000009,0.50000009 0 0 0 26.22301,7.168488 0.50000009,0.50000009 0 0 0 26.2484,6.4614567 C 26.134413,6.3389821 26.01906,6.2184378 25.900749,6.1001283 25.778149,5.9775289 25.652817,5.8567606 25.525749,5.7388001 A 0.50000009,0.50000009 0 0 0 25.211296,5.6059877 Z m 1.894531,2.2714843 a 0.50000009,0.50000009 0 0 0 -0.246094,0.085937 0.50000009,0.50000009 0 0 0 -0.128906,0.6953125 c 3.534504,5.1660665 2.889004,12.1090415 -1.53711,16.5351565 -4.426114,4.426113 -11.36909,5.071614 -16.5351561,1.537109 a 0.50000009,0.50000009 0 0 0 -0.6953125,0.128907 0.50000009,0.50000009 0 0 0 0.1308594,0.695313 C 13.65205,31.357823 21.138889,30.662768 25.900749,25.90091 30.662607,21.13905 31.357662,13.65221 27.555046,8.0942689 A 0.50000009,0.50000009 0 0 0 27.105827,7.877472 Z m -6.5,1.6230469 c -0.521962,-3.93e-5 -1.024072,0.2080154 -1.392578,0.5781251 l -3.220703,3.238281 -3.226563,-3.208984 C 12.062004,9.3533907 10.864691,9.2976431 10.094108,9.9888001 a 0.5000475,0.5000475 0 0 0 -0.01758,0.017578 c -0.767123,0.763183 -0.767123,2.020021 0,2.783203 l 3.238281,3.220704 -3.191406,3.208984 c -0.773274,0.701199 -0.8340132,1.910538 -0.1367191,2.6875 a 0.5000475,0.5000475 0 0 0 0.017578,0.01953 c 0.763411,0.766894 2.019792,0.766894 2.783203,0 a 0.5000475,0.5000475 0 0 0 0,-0.002 l 3.220703,-3.236328 3.208985,3.189453 c 0.701424,0.77306 1.912278,0.833787 2.689453,0.136719 a 0.5000475,0.5000475 0 0 0 0.01758,-0.01758 c 0.767124,-0.763182 0.767124,-2.018068 0,-2.78125 l -3.238281,-3.220703 3.191406,-3.208985 c 0.773274,-0.701199 0.834013,-1.910537 0.136719,-2.6875 a 0.5000475,0.5000475 0 0 0 -0.01758,-0.01953 C 21.627947,9.708583 21.127788,9.5004796 20.605827,9.5005189 Z m -9.189453,1.0000001 c 0.230885,0.0118 0.457919,0.112531 0.626953,0.298828 a 0.5000475,0.5000475 0 0 0 0.01758,0.01758 l 3.582031,3.5625 a 0.5000475,0.5000475 0 0 0 0.705078,-0.002 l 3.574219,-3.591797 c 0.181733,-0.182523 0.427716,-0.285175 0.683594,-0.285156 0.251349,-1.9e-5 0.489218,0.102816 0.669922,0.279297 0.325205,0.374967 0.298426,0.931252 -0.07031,1.265625 a 0.5000475,0.5000475 0 0 0 -0.01953,0.01758 l -3.5625,3.580078 a 0.5000475,0.5000475 0 0 0 0.002,0.707031 l 3.59375,3.574219 c 0.380759,0.378803 0.379853,0.968977 0.0059,1.351563 -0.375106,0.325123 -0.933121,0.298299 -1.267578,-0.07031 a 0.5000475,0.5000475 0 0 0 -0.01758,-0.01953 L 16.35778,17.625519 a 0.5000475,0.5000475 0 0 0 -0.705078,0.002 l -3.574219,3.591797 c -0.378915,0.380644 -0.970809,0.37974 -1.353516,0.0059 -0.325204,-0.374966 -0.298426,-0.931252 0.07031,-1.265625 a 0.5000475,0.5000475 0 0 0 0.01953,-0.01758 l 3.5625,-3.582031 a 0.5000475,0.5000475 0 0 0 -0.002,-0.707031 l -3.59375,-3.572266 c -0.380767,-0.37881 -0.379877,-0.970932 -0.0059,-1.353516 0.185617,-0.160887 0.414766,-0.238199 0.640717,-0.226648 z M 6.0804359,24.686066 a 0.50000009,0.50000009 0 0 0 -0.3164062,0.132812 0.50000009,0.50000009 0 0 0 -0.025391,0.707032 c 0.1179611,0.127067 0.2387287,0.2524 0.3613282,0.375 0.1183105,0.11831 0.2388502,0.233665 0.3613281,0.347656 a 0.50000009,0.50000009 0 0 0 0.7070313,-0.02539 0.50000009,0.50000009 0 0 0 -0.025391,-0.705078 C 7.0291831,25.412269 6.9168588,25.303738 6.8069984,25.193878 6.6931551,25.080034 6.5825358,24.96423 6.473014,24.846222 A 0.50000009,0.50000009 0 0 0 6.0804359,24.686066 Z" style="color:#000;fill:#0e232e;stroke:none;stroke-width:1;stroke-linecap:round;stroke-linejoin:round;stroke-dashoffset:.1;-inkscape-stroke:none"></path>
      <path id="path874" d="m 11.5,11 a 0.5,0.5 0 0 0 -0.353516,0.146484 0.5,0.5 0 0 0 0,0.707032 l 0.5,0.5 a 0.5,0.5 0 0 0 0.707032,0 0.5,0.5 0 0 0 0,-0.707032 l -0.5,-0.5 A 0.5,0.5 0 0 0 11.5,11 Z" style="color:#000;fill:#fff;fill-opacity:.988235;stroke-linecap:round;stroke-linejoin:round;-inkscape-stroke:none"></path>
    </g>
  </g>
</svg>
