<svg xmlns="http://www.w3.org/2000/svg" viewBox="0 0 168 168" id="success">
  <path fill="#0bceb2" d="M85 31.164a56 56 0 1 0 56 56 56.063 56.063 0 0 0-56-56Zm0 108a52 52 0 1 1 52-52 52.059 52.059 0 0 1-52 52Z"></path>
  <path fill="#2d4356" d="M115.598 61.738 68.27 108.31 54.449 93.785a2 2 0 0 0-2.898 2.757l15.223 16a2 2 0 0 0 1.416.622h.034a2 2 0 0 0 1.402-.575l48.776-48a2 2 0 1 0-2.804-2.851Z"></path>
  <path fill="#2d4356" d="M150.721 146.914h-44.46a64 64 0 1 0-44.523 0h-44.46a2.017 2.017 0 1 0 0 4h133.443a2.017 2.017 0 1 0 0-4zM24 86.914a60 60 0 1 1 60 60 60.068 60.068 0 0 1-60-60zm64.5-69.25a3 3 0 1 0-3-3 3.003 3.003 0 0 0 3 3zm0-4.5a1.5 1.5 0 1 1-1.5 1.5 1.501 1.501 0 0 1 1.5-1.5zm69.805 54.75a2 2 0 1 0 2 2 2.002 2.002 0 0 0-2-2zm0 3a1 1 0 1 1 1-1 1.001 1.001 0 0 1-1 1zM130 3.58a2 2 0 1 0 2 2 2.002 2.002 0 0 0-2-2zm0 3a1 1 0 1 1 1-1 1.001 1.001 0 0 1-1 1zm31.333 8.667a2 2 0 1 0 2 2 2.002 2.002 0 0 0-2-2zm0 3a1 1 0 1 1 1-1 1.001 1.001 0 0 1-1 1zM30.305 30.58a2 2 0 1 0-2 2 2.002 2.002 0 0 0 2-2zm-3 0a1 1 0 1 1 1 1 1.001 1.001 0 0 1-1-1z"></path>
  <path fill="#0bceb2" d="m10.888 67.925 1.487-1.956-.939-.532-.955 2.19h-.031l-.97-2.174-.955.547 1.471 1.91v.031l-2.301-.298v1.064l2.316-.297v.031L8.525 70.35l.891.564 1.018-2.207h.031l.939 2.191.986-.563-1.502-1.878v-.032l2.362.282v-1.064l-2.362.313v-.031zM12.162 6.238l-.856 1.099.513.325.586-1.271h.018l.541 1.262.568-.325-.865-1.081v-.018l1.36.162v-.613l-1.36.181v-.018l.856-1.127-.541-.306-.549 1.261h-.019l-.558-1.252-.55.315.847 1.1v.018l-1.325-.172v.613l1.334-.171v.018zM65.305 6.294V5.25l-2.317.307v-.031l1.458-1.918-.921-.522-.936 2.149h-.031l-.951-2.134-.937.538 1.443 1.872v.031l-2.257-.292v1.044l2.272-.292v.031L60.67 7.905l.875.553.998-2.164h.03l.921 2.148.967-.552-1.473-1.842v-.031l2.317.277zM138.858 35.839l1.258-1.655-.795-.45-.807 1.853h-.027l-.82-1.84-.809.463 1.245 1.616v.026l-1.946-.252v.9l1.959-.251v.027l-1.258 1.614.755.477.861-1.867h.026l.794 1.854.835-.477-1.271-1.588v-.027l1.998.238v-.9l-1.998.265v-.026z"></path>
  <circle cx="2" cy="148.914" r="2" fill="#2d4356"></circle>
  <path fill="#2d4356" d="M11 146.914H8a2 2 0 0 0 0 4h3a2 2 0 0 0 0-4zm149 0h-3a2 2 0 0 0 0 4h3a2 2 0 0 0 0-4z"></path>
  <circle cx="166" cy="148.914" r="2" fill="#2d4356"></circle>
  <path fill="#0bceb2" d="M118.154 154.914h-8.308a2.006 2.006 0 0 0 0 4h8.308a2.006 2.006 0 0 0 0-4zm-60 0h-8.308a2.006 2.006 0 0 0 0 4h8.308a2.006 2.006 0 0 0 0-4zm45.846 0H64a2 2 0 0 0 0 4h15.94v2H72a2 2 0 0 0 0 4h25a2 2 0 0 0 0-4h-8.94v-2H104a2 2 0 0 0 0-4z"></path>
</svg>
